<!-- Generator: Adobe Illustrator 18.1.1, SVG Export Plug-In  -->
<svg version="1.1"
	 xmlns="http://www.w3.org/2000/svg" xmlns:xlink="http://www.w3.org/1999/xlink" xmlns:a="http://ns.adobe.com/AdobeSVGViewerExtensions/3.0/"
	 x="0px" y="0px" width="190px" height="72.2px" viewBox="0 0 190 72.2" enable-background="new 0 0 190 72.2" xml:space="preserve"
	>
<defs>
</defs>
<g>
	<g>
		<path fill="#FFFFFF" d="M94.6,52.2c-3.3,0-5.8-0.2-7.1-0.4c-1.3-0.2-2-0.7-2-2.2V23.8c0-1.5,0.5-2,1.8-2.2
			c1.1-0.2,3.6-0.4,6.8-0.4c7.4,0,12.6,2.1,12.6,8.3v0.8c0,2.7-1.3,5.1-3.8,6.2c2.5,1.1,4,3.2,4,6.2v0.7
			C107,49.9,102.2,52.2,94.6,52.2z M101.3,29.8c0-2.9-1.8-3.9-7.1-3.9c-1,0-2.1,0-3,0.1v8.3h5.2c3.8,0,4.9-1.8,4.9-3.9V29.8z
			 M101.4,42.8c0-2.2-1.2-4.3-5-4.3h-5.2v9c1,0,2.5,0.1,3.4,0.1c5.2,0,6.9-1.4,6.9-4.2V42.8z"/>
		<path fill="#FFFFFF" d="M132.1,51.9h-5c-0.4,0-0.6-0.4-0.8-0.8l-5.9-10.9h-0.6c-1.1,0-2.7-0.1-3.6-0.2v11.1c0,0.4-0.3,0.8-0.8,0.8
			h-4.1c-0.4,0-0.8-0.4-0.8-0.8V22.9c0-0.8,0.5-1.1,1.3-1.2c2.1-0.3,5-0.5,8-0.5c6.3,0,11.8,2.3,11.8,9.2v0.4c0,4.3-2.2,7-5.5,8.3
			l6.4,11.9c0.1,0.1,0.1,0.2,0.1,0.3C132.6,51.7,132.4,51.9,132.1,51.9z M125.9,30.4c0-3.1-2-4.4-6.1-4.4c-0.9,0-2.9,0.1-3.6,0.2
			v9.2c0.7,0,2.9,0.1,3.6,0.1c4.2,0,6.1-1.1,6.1-4.7V30.4z"/>
		<path fill="#FFFFFF" d="M158.2,51.9h-4.3c-0.4,0-0.7-0.3-0.8-0.7l-1.9-7.8h-9.4l-1.9,7.8c-0.1,0.4-0.4,0.7-0.8,0.7h-4.3
			c-0.4,0-0.7-0.3-0.7-0.7c0,0,0-0.1,0-0.2l6.7-25.7c1-3.8,3.9-4.2,5.7-4.2c1.8,0,4.7,0.4,5.7,4.2l6.7,25.7c0,0.1,0,0.2,0,0.2
			C159,51.6,158.6,51.9,158.2,51.9z M147.2,26.6c-0.1-0.5-0.2-0.7-0.7-0.7c-0.4,0-0.5,0.2-0.7,0.7l-2.9,12.2h7.2L147.2,26.6z"/>
		<path fill="#FFFFFF" d="M181.5,22.4l-6.7,25.7c-1,3.8-3.9,4.2-5.7,4.2c-1.8,0-4.7-0.4-5.7-4.2l-6.7-25.7c0-0.1,0-0.1,0-0.2
			c0-0.4,0.3-0.7,0.7-0.7h4.3c0.4,0,0.7,0.3,0.8,0.7l5.9,24.6c0.1,0.5,0.2,0.7,0.7,0.7s0.5-0.2,0.7-0.7l5.9-24.6
			c0.1-0.4,0.4-0.7,0.8-0.7h4.3c0.4,0,0.7,0.3,0.7,0.7C181.5,22.3,181.5,22.3,181.5,22.4z"/>
		<path fill="#FFFFFF" d="M189.2,51.9h-4c-0.4,0-0.8-0.4-0.8-0.8V22.3c0-0.5,0.4-0.8,0.8-0.8h4c0.5,0,0.8,0.3,0.8,0.8v28.8
			C190,51.5,189.6,51.9,189.2,51.9z"/>
	</g>
	<g>
		<g>
			<path fill="#FFFFFF" d="M40.7,56.6c-1.5,0-2.8-1.1-3-2.6c-0.2-1.7,0.9-3.2,2.6-3.4c8-1.2,14-8.1,14-16.2c0-9-7.4-16.4-16.4-16.4
				c-8.1,0-14.9,5.8-16.2,13.8c-0.3,1.7-1.8,2.8-3.5,2.5c-1.6-0.3-2.8-1.8-2.5-3.5c1.7-11,11-18.9,22.2-18.9
				c12.4,0,22.4,10.1,22.4,22.4c0,11.1-8.2,20.6-19.2,22.2C41,56.6,40.8,56.6,40.7,56.6z"/>
		</g>
		<g>
			<path fill="#FFFFFF" d="M37.6,43.1c5,0,9-4,9-9c0-5-4-9-9-9c-5,0-9,4-9,9C28.6,39.1,32.7,43.1,37.6,43.1z"/>
		</g>
		<path fill="#FFFFFF" d="M16.3,72.2c9,0,16.3-7.3,16.3-16.3c0-9-7.3-16.3-16.3-16.3C7.3,39.5,0,46.9,0,55.9
			C0,64.9,7.3,72.2,16.3,72.2z M16.3,64.9c-5,0-9-4-9-9c0-5,4-9,9-9c5,0,9,4,9,9C25.3,60.8,21.3,64.9,16.3,64.9z"/>
		<g>
			<path fill="#FFFFFF" d="M16.3,72.2c9,0,16.3-7.3,16.3-16.3c0-9-7.3-16.3-16.3-16.3C7.3,39.5,0,46.9,0,55.9
				C0,64.9,7.3,72.2,16.3,72.2z M16.3,64.9c-5,0-9-4-9-9c0-5,4-9,9-9c5,0,9,4,9,9C25.3,60.8,21.3,64.9,16.3,64.9z"/>
		</g>
		<g>
			<circle fill="#FFFFFF" cx="60.4" cy="12" r="4.3"/>
		</g>
		<g>
			<path fill="#FFFFFF" d="M41.1,68.5c-1.5,0-2.8-1.2-3-2.7c-0.2-1.7,1-3.1,2.7-3.3C55.2,61,66.2,48.9,66.2,34.3
				c0-3.8-0.7-7.4-2.2-10.9c-0.6-1.5,0.1-3.3,1.6-4c1.5-0.6,3.3,0.1,4,1.6c1.7,4.2,2.6,8.6,2.6,13.2C72.2,52,59,66.7,41.4,68.5
				C41.3,68.5,41.2,68.5,41.1,68.5z"/>
		</g>
		<g>
			<path fill="#FFFFFF" d="M6.7,34.2c-0.1,0-0.2,0-0.3,0c-1.7-0.2-2.9-1.7-2.7-3.3C5.5,13.3,20.2,0,37.9,0c4.7,0,9.3,0.9,13.6,2.8
				c1.5,0.7,2.2,2.4,1.6,4c-0.7,1.5-2.4,2.2-4,1.6c-3.5-1.5-7.3-2.3-11.2-2.3C23.3,6.1,11.2,17,9.7,31.4C9.6,33,8.3,34.2,6.7,34.2z"
				/>
		</g>
	</g>
</g>
</svg>
